<?xml version="1.0" encoding="utf-8"?>
<!-- Generator: Adobe Illustrator 19.0.0, SVG Export Plug-In . SVG Version: 6.00 Build 0)  -->
<svg version="1.1" id="Layer_1" xmlns="http://www.w3.org/2000/svg" xmlns:xlink="http://www.w3.org/1999/xlink" x="0px" y="0px"
	 viewBox="0 0 275 275" style="enable-background:new 0 0 275 275;" xml:space="preserve">
<style type="text/css">
	.st0{fill:#070707;}
	.st1{fill:#F49D16;}
</style>
<g>
	<path class="st0" d="M58.9,125.4c3.4-6.1,11.5-6.7,15.4,0.7c1.9-3.3,4.4-5.4,8.4-5.3c4.5,0.1,8,3,8.1,7.5
		c0.2,8.1,0.1,16.2,0.1,24.2c0,0.2,0.1,0.6-0.1,0.7c-1.9,2.1-4.4,0.6-6.6,0.9c-1.3,0.2-1.5-1-1.5-2.1c0-5.4,0-10.8,0-16.2
		c0-1.1,0-2.2,0-3.2c-0.1-2.7-1.3-4.1-3.4-4.1c-2.1-0.1-3.9,1.5-4.1,3.9c-0.7,6.2-0.3,12.5-0.2,18.7c0,2.5-0.7,3.3-3.2,3.2
		c-6-0.2-4.9,0.3-5-5.2c0-5,0-10,0-15c0-4-1.2-5.7-3.7-5.7c-2.5,0-3.9,1.8-3.9,5.6c-0.1,5.8-0.1,11.7,0,17.5c0,2.1-0.7,2.8-2.7,2.8
		c-6.6-0.1-5.5,0.4-5.5-5.4c0-8.2,0.1-16.3-0.1-24.5c0-2.2,0.5-3.1,2.9-3.1C58.2,121.4,58.2,121.2,58.9,125.4z"/>
	<path class="st0" d="M43.9,136c0,1.7,0.1,3.5,0,5.2c-0.1,2.4,0.3,4.7,1.9,6.6c1,1.1,0.8,2.1-0.4,2.9c-0.3,0.2-0.7,0.5-1,0.8
		c-3.7,3.1-3.7,3.2-6.9-0.4c-0.9-1-1.3-0.4-1.9,0.1c-2.5,2.4-5.5,3.3-8.8,3.2c-4.2-0.1-7.3-2.4-8.3-6c-1.3-4.5,0.1-9.2,3.7-11.8
		c2.8-2,6.1-2.4,9.4-3c1.4-0.2,3.7,0.8,3.9-1.7c0.2-2.1,0-4.3-2.6-5.1c-2.1-0.7-4.5,0.2-5.7,2.1c-0.5,0.9-0.4,2.4-1.9,2.3
		c-2-0.1-4,0-5.9-0.8c-0.8-0.3-0.5-1.1-0.3-1.8c0.9-3.5,3.1-5.8,6.4-7.2c3.9-1.6,8-1.7,12-0.4c4,1.3,6.1,4.1,6.3,8.3
		C43.9,131.7,43.8,133.9,43.9,136C43.8,136,43.8,136,43.9,136z M35.4,140.8c-0.3-0.7,0.7-2.1-0.7-2.6c-3.8-1.3-8.3,2.5-7.9,6.6
		c0.1,1.5,0.7,2.8,2.2,3.4c1.6,0.7,3.1,0.2,4.3-1C35,145.5,35.5,143.4,35.4,140.8z"/>
	<path class="st0" d="M194.2,125.9c1.8-3.1,3.9-5.1,7.3-5.2c4.9-0.2,8.1,2.4,8.8,7.3c0.7,5.3,0.3,10.6,0.4,16c0.1,2.5,0,5,0,7.5
		c0,0.5,0.2,1.1-0.1,1.5c-1.7,2.4-4.3,0.8-6.4,1.2c-1.3,0.2-1.9-0.7-1.8-2c0.1-5.5,0-11,0-16.5c0-1.2,0-2.5-0.2-3.7
		c-0.3-1.7-1-3.3-3-3.5c-2-0.3-3.2,1-4.1,2.7c-0.8,1.7-0.9,3.5-0.9,5.4c0,5.1-0.1,10.2,0,15.2c0,2-0.7,2.6-2.6,2.6
		c-6.6-0.1-5.5,0.7-5.5-5.6c-0.1-8.2,0-16.5-0.1-24.7c0-1.9,0.5-2.9,2.5-2.6c0.2,0,0.3,0,0.5,0C193.5,121.3,193.5,121.3,194.2,125.9
		z"/>
	<path class="st0" d="M122,136.3c0,1.7,0,3.5,0,5.2c-0.1,2.3,0.3,4.5,1.9,6.3c1,1.1,0.8,2.1-0.4,2.9c-0.4,0.3-0.8,0.6-1.2,0.9
		c-3.5,3-3.6,3-6.7-0.5c-0.9-1-1.4-0.4-2,0.2c-2,1.9-4.4,2.9-7.2,3.1c-4.3,0.3-7.7-1.2-9.3-4.4c-1.8-3.6-1.2-8.8,1.3-11.7
		c2-2.3,4.7-3.4,7.6-4c1.2-0.3,2.5-0.2,3.7-0.6c1.3-0.4,3.5,0.8,3.9-1.5c0.3-2,0.1-4.2-2.2-5.1c-2.1-0.8-4.7-0.7-5.5,1.3
		c-1.6,3.8-4.3,2.7-6.9,2.5c-1.7-0.1-2.1-1.1-1.6-2.5c1-3.1,3-5.4,6-6.6c4.3-1.8,8.7-2,13.1-0.3c3.3,1.3,5.3,3.7,5.4,7.4
		c0.1,2.5,0,5,0,7.5C121.9,136.3,122,136.3,122,136.3z M113.7,140.9c-0.3-0.8,0.7-2.1-0.8-2.7c-2.7-1-7.2,1.6-7.9,4.5
		c-0.6,2.4,0.3,4.8,2.2,5.5c1.9,0.8,4.1-0.2,5.4-2.4C113.4,144.3,113.6,142.7,113.7,140.9z"/>
	<path class="st0" d="M154.7,137.9c-0.1-3.4,0.4-6.5,1.7-9.4c2.2-4.7,5.7-7.5,11-7.8c5.5-0.3,9.6,2.1,12,6.9
		c3.1,6.3,3.3,12.8,0.4,19.3c-2.4,5.2-7.1,8-12.5,7.8c-5.1-0.2-9.2-3.5-11.2-8.9C155,143.2,154.6,140.5,154.7,137.9z M172.8,137.9
		c0-2.3,0-4.7-0.6-6.9c-0.5-2.2-1.5-4-4.1-4c-2.5,0-3.7,1.6-4.2,3.8c-1,4.6-0.9,9.2,0.2,13.8c0.5,2.1,1.6,3.8,4,3.7
		c2.4,0,3.4-1.8,4-3.8C172.9,142.4,172.9,140.2,172.8,137.9z"/>
	<path class="st1" d="M96,178.4c-17.8-0.1-33.6-5.9-47.5-17c-0.5-0.4-0.9-0.7-1.3-1.2c-0.6-0.7-2-1.2-1.1-2.3
		c0.7-0.8,1.7-0.1,2.5,0.4c11.6,6.7,24.1,10.4,37.3,12c16.9,2,33.2-0.1,48.9-6.6c0.3-0.1,0.6-0.3,0.9-0.3c1-0.2,2.1-0.6,2.6,0.7
		c0.4,1.1-0.4,1.8-1.3,2.4c-4.2,2.7-8.6,5.1-13.3,6.9C115.2,176.6,105.3,178.4,96,178.4z"/>
	<path class="st0" d="M140.1,121.2c2.9,0,5.8,0.1,8.7,0c1.8-0.1,2.3,0.7,2.3,2.4c0,2.1-0.4,3.9-1.6,5.6c-3,4-5.7,8.2-8.6,12.2
		c-1,1.4-1.2,2.1,0.9,2.1c2.8,0.1,5.5,0.6,8,1.8c1.7,0.8,2.8,6.2,1.6,7.5c-0.5,0.5-1,0.3-1.6,0.1c-6.6-2.9-13.2-3-19.8,0.1
		c-1.2,0.5-1.8,0-1.8-1.2c-0.1-3.2-0.2-6.3,2.1-9.2c3.2-3.9,5.9-8.3,8.8-12.4c0.4-0.6,1.2-1.2,0.9-1.9c-0.4-0.9-1.5-0.4-2.2-0.4
		c-2.2-0.1-4.3-0.1-6.5-0.1c-1.6,0.1-2-0.6-2-2.1c-0.1-4.5-0.1-4.5,4.4-4.5C135.8,121.2,138,121.2,140.1,121.2z"/>
	<path class="st0" d="M239.5,125.7c1.7-2.6,3.7-4.5,6.8-4.8c5.7-0.7,9.9,2.9,10.5,9.1c0.7,7.5,0.2,15,0.3,22.5
		c0,1.9-1.3,1.7-2.6,1.8c-1.5,0.1-2.3-0.4-2.3-2.1c0.1-5.9,0-11.8,0-17.7c0-1.5-0.1-3-0.4-4.5c-1.1-4.7-5.5-6.1-9.1-2.8
		c-2.6,2.4-3.4,5.6-3.4,9.1c-0.1,5.2-0.1,10.5,0,15.7c0,2-0.8,2.3-2.5,2.3c-1.7,0-2.3-0.6-2.3-2.3c0-9.4,0-18.8,0-28.2
		c0-1.7,0.5-2.4,2.3-2.4c1.9,0,2.3,0.8,2.1,2.4C238.8,124.3,238.7,124.9,239.5,125.7z"/>
	<path class="st0" d="M228.7,138c0,4.7-0.1,9.3,0,14c0.1,2.1-1,2.2-2.6,2.2c-1.7,0-2.3-0.6-2.3-2.3c0.1-9.4,0.1-18.8,0-28.2
		c0-2.1,1.1-2.2,2.7-2.2c1.7,0,2.3,0.6,2.3,2.3C228.7,128.5,228.7,133.3,228.7,138z"/>
	<path class="st1" d="M134.8,159.8c-1.6,0-3.1,0-4.7,0c-0.5,0-1.1,0.1-1.2-0.6c-0.1-0.6,0.3-0.9,0.7-1.2c1.4-0.9,2.9-1.6,4.5-2
		c3.8-0.8,7.5-1.2,11.3-0.3c1.4,0.3,2.1,1,2.1,2.3c0,5.9-2,11-6.1,15.3c-0.4,0.4-0.9,1-1.5,0.5c-0.5-0.4-0.4-1.1-0.2-1.6
		c0.7-2.2,1.6-4.4,2.3-6.6c1.6-5.3,0.8-6.3-4.8-6.3c-0.8,0-1.7,0-2.5,0C134.8,159.6,134.8,159.7,134.8,159.8z"/>
	<path class="st0" d="M226.3,115.8c-1.7-0.2-2.8-1-2.9-2.8c0-1.8,1.1-2.8,2.8-2.8c1.8,0,3.1,0.9,3,2.8
		C229.2,114.8,228,115.6,226.3,115.8z"/>
	<path class="st0" d="M217.2,154.5c-1.8-0.2-2.8-1.2-2.8-2.9c0-1.7,1.3-2.7,3-2.6c1.7,0,2.9,1,2.8,2.8
		C220.1,153.4,218.9,154.4,217.2,154.5z"/>
</g>
</svg>
